<?xml version="1.0" encoding="UTF-8" standalone="no"?>
<!-- Created with Inkscape (http://www.inkscape.org/) -->

<svg
   xmlns:dc="http://purl.org/dc/elements/1.1/"
   xmlns:cc="http://creativecommons.org/ns#"
   xmlns:rdf="http://www.w3.org/1999/02/22-rdf-syntax-ns#"
   xmlns:svg="http://www.w3.org/2000/svg"
   xmlns="http://www.w3.org/2000/svg"
   xmlns:sodipodi="http://sodipodi.sourceforge.net/DTD/sodipodi-0.dtd"
   xmlns:inkscape="http://www.inkscape.org/namespaces/inkscape"
   width="744.09448819"
   height="1052.3622047"
   id="svg2"
   version="1.1"
   inkscape:version="0.48.2 r9819"
   sodipodi:docname="buttons.svg">
  <defs
     id="defs4">
    <filter
       id="filter3835"
       inkscape:label="Drop shadow"
       width="1.5"
       height="1.5"
       x="-.25"
       y="-.25">
      <feGaussianBlur
         id="feGaussianBlur3837"
         in="SourceAlpha"
         stdDeviation="10"
         result="blur" />
      <feColorMatrix
         id="feColorMatrix3839"
         result="bluralpha"
         type="matrix"
         values="1 0 0 0 0 0 1 0 0 0 0 0 1 0 0 0 0 0 0.6 0 " />
      <feOffset
         id="feOffset3841"
         in="bluralpha"
         dx="8"
         dy="12"
         result="offsetBlur" />
      <feMerge
         id="feMerge3843">
        <feMergeNode
           id="feMergeNode3845"
           in="offsetBlur" />
        <feMergeNode
           id="feMergeNode3847"
           in="SourceGraphic" />
      </feMerge>
    </filter>
    <filter
       id="filter3874"
       inkscape:label="Drop shadow"
       width="1.5"
       height="1.5"
       x="-.25"
       y="-.25">
      <feGaussianBlur
         id="feGaussianBlur3876"
         in="SourceAlpha"
         stdDeviation="10"
         result="blur" />
      <feColorMatrix
         id="feColorMatrix3878"
         result="bluralpha"
         type="matrix"
         values="1 0 0 0 0 0 1 0 0 0 0 0 1 0 0 0 0 0 0.6 0 " />
      <feOffset
         id="feOffset3880"
         in="bluralpha"
         dx="8"
         dy="12"
         result="offsetBlur" />
      <feMerge
         id="feMerge3882">
        <feMergeNode
           id="feMergeNode3884"
           in="offsetBlur" />
        <feMergeNode
           id="feMergeNode3886"
           in="SourceGraphic" />
      </feMerge>
    </filter>
  </defs>
  <sodipodi:namedview
     id="base"
     pagecolor="#ffffff"
     bordercolor="#666666"
     borderopacity="1.0"
     inkscape:pageopacity="0.0"
     inkscape:pageshadow="2"
     inkscape:zoom="0.49497475"
     inkscape:cx="520.47895"
     inkscape:cy="-772.53066"
     inkscape:document-units="px"
     inkscape:current-layer="layer1"
     showgrid="false"
     inkscape:window-width="1217"
     inkscape:window-height="838"
     inkscape:window-x="56"
     inkscape:window-y="0"
     inkscape:window-maximized="0" />
  <metadata
     id="metadata7">
    <rdf:RDF>
      <cc:Work
         rdf:about="">
        <dc:format>image/svg+xml</dc:format>
        <dc:type
           rdf:resource="http://purl.org/dc/dcmitype/StillImage" />
        <dc:title></dc:title>
      </cc:Work>
    </rdf:RDF>
  </metadata>
  <g
     inkscape:label="Layer 1"
     inkscape:groupmode="layer"
     id="layer1">
    <rect
       style="fill:#999999;fill-opacity:0.6711111;stroke:none"
       id="rect3083"
       width="1315.7142"
       height="644.28571"
       x="-293.57141"
       y="1109.5049" />
    <path
       style="fill:#ffffff;stroke:none;"
       d="m -58.57052,1347.5756 0,-194.9982 191.38553,97.4991 z"
       id="path2985"
       inkscape:connector-curvature="0"
       sodipodi:nodetypes="cccc"
       inkscape:export-filename="/Users/msh801/github/ComputerMuseum/images/play.png"
       inkscape:export-xdpi="9.230854"
       inkscape:export-ydpi="9.230854" />
    <text
       xml:space="preserve"
       style="font-size:22px;font-style:normal;font-variant:normal;font-weight:normal;font-stretch:normal;line-height:125%;letter-spacing:0px;word-spacing:0px;fill:#000000;fill-opacity:1;stroke:none;font-family:Webdings;-inkscape-font-specification:Webdings"
       x="47.142857"
       y="636.64789"
       id="text2987"
       sodipodi:linespacing="125%"><tspan
         sodipodi:role="line"
         id="tspan2989"
         x="47.142857"
         y="636.64789"
         style="-inkscape-font-specification:Webdings;font-family:Webdings;font-weight:normal;font-style:normal;font-stretch:normal;font-variant:normal">abcdefghijklmnopqrstuvwxyz</tspan><tspan
         sodipodi:role="line"
         x="47.142857"
         y="664.14789"
         id="tspan2991"
         style="-inkscape-font-specification:Webdings;font-family:Webdings;font-weight:normal;font-style:normal;font-stretch:normal;font-variant:normal">ABCDEFGHIJKLMNOPQRSTUVWXYZ</tspan><tspan
         sodipodi:role="line"
         x="47.142857"
         y="691.64789"
         id="tspan2993"
         style="-inkscape-font-specification:Webdings;font-family:Webdings;font-weight:normal;font-style:normal;font-stretch:normal;font-variant:normal">1234567890-=`~!@#$%^&amp;*()_+</tspan><tspan
         sodipodi:role="line"
         x="47.142857"
         y="719.14789"
         id="tspan2995"
         style="-inkscape-font-specification:Webdings;font-family:Webdings;font-weight:normal;font-style:normal;font-stretch:normal;font-variant:normal">,./&lt;&gt;?;':&quot;[]{}|\</tspan></text>
    <g
       id="g3870"
       style="fill:#ffffff;stroke:none"
       transform="matrix(-0.63123745,0.63123746,-0.63123746,-0.63123745,1365.1104,1531.7037)"
       inkscape:export-filename="/Users/msh801/github/ComputerMuseum/images/restart.png"
       inkscape:export-xdpi="9.6398134"
       inkscape:export-ydpi="9.6398134">
      <path
         inkscape:connector-curvature="0"
         id="path2997"
         d="m 445.42041,768.46637 c -6.70673,-0.008 -13.50037,0.65611 -20.28575,2.02843 -4.16068,0.79597 -8.0168,3.62823 -10.46837,7.68883 -2.45157,4.0606 -3.4677,9.29841 -2.75855,14.21928 0.70916,4.92088 3.13468,9.46284 6.58466,12.33025 3.44998,2.8674 7.88096,4.02414 12.02897,3.14023 39.72088,-8.03344 75.21619,17.67485 82.37249,53.05875 7.1563,35.38389 -13.61636,71.73362 -53.33726,79.76707 -39.72089,8.03346 -76.89796,-18.22219 -84.05428,-53.60609 -0.81213,-4.01556 -1.23473,-8.07004 -1.27661,-12.13374 0.0144,-5.01296 -1.73233,-10.00092 -4.73807,-13.53008 -3.00575,-3.52916 -7.23203,-5.55433 -11.46399,-5.49338 -4.23196,0.0609 -8.41542,2.20724 -11.34783,5.82192 -2.93241,3.61469 -4.57622,8.65148 -4.45892,13.66254 0.071,6.89864 0.80294,13.77587 2.16401,20.50567 11.85577,58.62002 66.27937,93.13036 120.56239,82.15175 l 0.17125,-0.0369 c 54.19141,-11.06214 92.44123,-66.81823 80.59807,-125.37593 -10.3738,-51.29251 -53.34504,-84.1442 -100.29221,-84.19862 z"
         style="font-size:medium;font-style:normal;font-variant:normal;font-weight:normal;font-stretch:normal;text-indent:0;text-align:start;text-decoration:none;line-height:normal;letter-spacing:normal;word-spacing:normal;text-transform:none;direction:ltr;block-progression:tb;writing-mode:lr-tb;text-anchor:start;baseline-shift:baseline;color:#000000;fill:#ffffff;fill-opacity:1;stroke:none;stroke-width:64.25609589;marker:none;visibility:visible;display:inline;overflow:visible;enable-background:accumulate;font-family:Sans;-inkscape-font-specification:Sans"
         sodipodi:nodetypes="ccssscssscssscsccscc" />
      <path
         style="fill:#ffffff;stroke:none"
         d="m 401.4465,891.00654 -81.0979,-7e-5 40.54898,-73.66774 z"
         id="path2999"
         inkscape:connector-curvature="0"
         sodipodi:nodetypes="cccc" />
    </g>
    <rect
       style="fill:none;stroke:none"
       id="rect3888"
       width="250"
       height="250"
       x="-87.877754"
       y="1125.0765"
       inkscape:export-filename="/Users/msh801/github/ComputerMuseum/images/play.png"
       inkscape:export-xdpi="9"
       inkscape:export-ydpi="9" />
    <rect
       y="1136.1425"
       x="409.50919"
       height="250"
       width="250"
       id="rect3890"
       style="fill:none;stroke:none"
       inkscape:export-filename="/Users/msh801/github/ComputerMuseum/images/restart.png"
       inkscape:export-xdpi="9.932148"
       inkscape:export-ydpi="9.932148" />
    <g
       id="g3091"
       style="fill:#ffffff;fill-opacity:1"
       transform="matrix(1.1930532,0,0,1.0036764,-45.573003,10.204897)"
       inkscape:export-filename="/Users/msh801/github/ComputerMuseum/images/pause.png"
       inkscape:export-xdpi="9.2647066"
       inkscape:export-ydpi="9.2647066">
      <rect
         y="1148.7908"
         x="190.26578"
         height="194.28572"
         width="45.182716"
         id="rect3085"
         style="fill:#ffffff;fill-opacity:1;stroke:none" />
      <rect
         style="fill:#ffffff;fill-opacity:1;stroke:none"
         id="rect3089"
         width="45.182716"
         height="194.28572"
         x="288.26578"
         y="1148.7908" />
    </g>
    <rect
       inkscape:export-ydpi="9"
       inkscape:export-xdpi="9"
       inkscape:export-filename="/Users/msh801/github/ComputerMuseum/images/pause.png"
       y="1125.0765"
       x="136.12225"
       height="250"
       width="250"
       id="rect3863"
       style="fill:none;stroke:none" />
    <g
       transform="matrix(1.160115,0,0,0.86198351,-391.93923,3.1957195)"
       style="font-size:54.17305374px;font-style:normal;font-variant:normal;font-weight:normal;font-stretch:normal;text-align:end;line-height:125%;letter-spacing:0px;word-spacing:0px;text-anchor:end;fill:#ffffff;fill-opacity:1;stroke:none;font-family:Nanum Pen Script;-inkscape-font-specification:Nanum Pen Script"
       id="text3163">
      <path
         d="m 1007.3556,1471.8668 10.283,1.0637 c 9.2192,2e-4 17.6111,-3.6639 25.1757,-10.9922 7.5644,-7.5643 11.3467,-16.429 11.3468,-26.594 -10e-5,-20.5659 -8.392,-30.8489 -25.1757,-30.8491 -7.3282,2e-4 -13.3562,2.9551 -18.0839,8.8647 -4.4915,5.6736 -6.7372,12.4107 -6.7372,20.2115 l 0,3.5458 -36.1679,0 c -10e-6,-17.7292 5.67338,-32.3854 17.02019,-43.9688 11.58314,-11.8193 26.12121,-17.7291 43.61421,-17.7294 17.7293,3e-4 32.3856,5.7919 43.9688,17.3748 11.5831,11.5834 17.3747,26.2397 17.3748,43.9688 -10e-5,14.1837 -4.2552,26.7124 -12.7651,37.5863 -8.2738,10.8741 -19.3842,17.9658 -33.3312,21.2752 l -2.1276,27.3032 -34.3949,0 0,-51.0605 m 37.5862,104.9578 c -10e-5,6.1462 -2.2458,11.465 -6.7371,15.9564 -4.2551,4.2551 -9.574,6.3826 -15.9565,6.3826 -6.1462,0 -11.465,-2.2457 -15.9564,-6.7372 -4.4915,-4.4914 -6.73718,-9.8102 -6.73714,-15.9564 -4e-5,-6.1461 2.12744,-11.3467 6.38254,-15.6018 4.4914,-4.4914 9.9284,-6.7371 16.311,-6.7372 6.3825,10e-5 11.7014,2.2458 15.9565,6.7372 4.4913,4.2551 6.737,9.5739 6.7371,15.9564"
         style="font-size:354.58724976px;font-weight:bold;fill:#ffffff;font-family:Apple LiGothic;-inkscape-font-specification:Apple LiGothic Bold"
         id="path3170"
         inkscape:connector-curvature="0" />
    </g>
    <rect
       style="opacity:0.19626166;fill:#ffffff;fill-opacity:1;stroke:none"
       id="rect3099"
       width="250"
       height="250"
       x="682.8631"
       y="1168.2976" />
  </g>
</svg>
