<?xml version="1.0" encoding="UTF-8" standalone="no"?>
<!-- Created with Inkscape (http://www.inkscape.org/) -->

<svg
   xmlns:dc="http://purl.org/dc/elements/1.1/"
   xmlns:cc="http://creativecommons.org/ns#"
   xmlns:rdf="http://www.w3.org/1999/02/22-rdf-syntax-ns#"
   xmlns:svg="http://www.w3.org/2000/svg"
   xmlns="http://www.w3.org/2000/svg"
   xmlns:sodipodi="http://sodipodi.sourceforge.net/DTD/sodipodi-0.dtd"
   xmlns:inkscape="http://www.inkscape.org/namespaces/inkscape"
   width="744.09448819"
   height="1052.3622047"
   id="svg2"
   version="1.1"
   inkscape:version="0.48.2 r9819"
   sodipodi:docname="buttons.svg">
  <defs
     id="defs4">
    <filter
       id="filter3835"
       inkscape:label="Drop shadow"
       width="1.5"
       height="1.5"
       x="-.25"
       y="-.25">
      <feGaussianBlur
         id="feGaussianBlur3837"
         in="SourceAlpha"
         stdDeviation="10"
         result="blur" />
      <feColorMatrix
         id="feColorMatrix3839"
         result="bluralpha"
         type="matrix"
         values="1 0 0 0 0 0 1 0 0 0 0 0 1 0 0 0 0 0 0.6 0 " />
      <feOffset
         id="feOffset3841"
         in="bluralpha"
         dx="8"
         dy="12"
         result="offsetBlur" />
      <feMerge
         id="feMerge3843">
        <feMergeNode
           id="feMergeNode3845"
           in="offsetBlur" />
        <feMergeNode
           id="feMergeNode3847"
           in="SourceGraphic" />
      </feMerge>
    </filter>
    <filter
       id="filter3874"
       inkscape:label="Drop shadow"
       width="1.5"
       height="1.5"
       x="-.25"
       y="-.25">
      <feGaussianBlur
         id="feGaussianBlur3876"
         in="SourceAlpha"
         stdDeviation="10"
         result="blur" />
      <feColorMatrix
         id="feColorMatrix3878"
         result="bluralpha"
         type="matrix"
         values="1 0 0 0 0 0 1 0 0 0 0 0 1 0 0 0 0 0 0.6 0 " />
      <feOffset
         id="feOffset3880"
         in="bluralpha"
         dx="8"
         dy="12"
         result="offsetBlur" />
      <feMerge
         id="feMerge3882">
        <feMergeNode
           id="feMergeNode3884"
           in="offsetBlur" />
        <feMergeNode
           id="feMergeNode3886"
           in="SourceGraphic" />
      </feMerge>
    </filter>
  </defs>
  <sodipodi:namedview
     id="base"
     pagecolor="#ffffff"
     bordercolor="#666666"
     borderopacity="1.0"
     inkscape:pageopacity="0.0"
     inkscape:pageshadow="2"
     inkscape:zoom="0.24748737"
     inkscape:cx="416.6454"
     inkscape:cy="-359.38974"
     inkscape:document-units="px"
     inkscape:current-layer="layer1"
     showgrid="false"
     inkscape:window-width="1217"
     inkscape:window-height="838"
     inkscape:window-x="56"
     inkscape:window-y="0"
     inkscape:window-maximized="0" />
  <metadata
     id="metadata7">
    <rdf:RDF>
      <cc:Work
         rdf:about="">
        <dc:format>image/svg+xml</dc:format>
        <dc:type
           rdf:resource="http://purl.org/dc/dcmitype/StillImage" />
        <dc:title></dc:title>
      </cc:Work>
    </rdf:RDF>
  </metadata>
  <g
     inkscape:label="Layer 1"
     inkscape:groupmode="layer"
     id="layer1">
    <rect
       style="fill:#999999;fill-opacity:0.6711111;stroke:none"
       id="rect3083"
       width="1315.7142"
       height="644.28571"
       x="-309.73386"
       y="-1660.8563"
       transform="scale(1,-1)" />
    <path
       style="fill:#ffffff;stroke:none;"
       d="m -58.57052,1347.5756 0,-194.9982 191.38553,97.4991 z"
       id="path2985"
       inkscape:connector-curvature="0"
       sodipodi:nodetypes="cccc"
       inkscape:export-filename="/Users/msh801/github/ComputerMuseum/images/play.png"
       inkscape:export-xdpi="9.230854"
       inkscape:export-ydpi="9.230854" />
    <text
       xml:space="preserve"
       style="font-size:22px;font-style:normal;font-variant:normal;font-weight:normal;font-stretch:normal;line-height:125%;letter-spacing:0px;word-spacing:0px;fill:#000000;fill-opacity:1;stroke:none;font-family:Webdings;-inkscape-font-specification:Webdings"
       x="47.142857"
       y="636.64789"
       id="text2987"
       sodipodi:linespacing="125%"><tspan
         sodipodi:role="line"
         id="tspan2989"
         x="47.142857"
         y="636.64789"
         style="-inkscape-font-specification:Webdings;font-family:Webdings;font-weight:normal;font-style:normal;font-stretch:normal;font-variant:normal">abcdefghijklmnopqrstuvwxyz</tspan><tspan
         sodipodi:role="line"
         x="47.142857"
         y="664.14789"
         id="tspan2991"
         style="-inkscape-font-specification:Webdings;font-family:Webdings;font-weight:normal;font-style:normal;font-stretch:normal;font-variant:normal">ABCDEFGHIJKLMNOPQRSTUVWXYZ</tspan><tspan
         sodipodi:role="line"
         x="47.142857"
         y="691.64789"
         id="tspan2993"
         style="-inkscape-font-specification:Webdings;font-family:Webdings;font-weight:normal;font-style:normal;font-stretch:normal;font-variant:normal">1234567890-=`~!@#$%^&amp;*()_+</tspan><tspan
         sodipodi:role="line"
         x="47.142857"
         y="719.14789"
         id="tspan2995"
         style="-inkscape-font-specification:Webdings;font-family:Webdings;font-weight:normal;font-style:normal;font-stretch:normal;font-variant:normal">,./&lt;&gt;?;':&quot;[]{}|\</tspan></text>
    <path
       sodipodi:nodetypes="cccc"
       inkscape:connector-curvature="0"
       id="path2999"
       d="m 496.56118,1249.3901 46.46758,-80.4843 42.06598,77.9429 z"
       style="fill:#ffffff;stroke:none" />
    <rect
       style="fill:none;stroke:none"
       id="rect3888"
       width="250"
       height="250"
       x="-87.877754"
       y="1125.0765"
       inkscape:export-filename="/Users/msh801/github/ComputerMuseum/images/play.png"
       inkscape:export-xdpi="9"
       inkscape:export-ydpi="9" />
    <rect
       y="1136.1425"
       x="409.50919"
       height="250"
       width="250"
       id="rect3890"
       style="fill:none;stroke:none"
       inkscape:export-filename="/Users/msh801/github/ComputerMuseum/images/restart.png"
       inkscape:export-xdpi="9.932148"
       inkscape:export-ydpi="9.932148" />
    <rect
       style="fill:#ffffff;fill-opacity:1;stroke:none"
       id="rect3085"
       width="53.905384"
       height="195"
       x="181.42419"
       y="1163.2191" />
    <rect
       y="1163.2191"
       x="276.34341"
       height="195"
       width="53.905384"
       id="rect3089"
       style="fill:#ffffff;fill-opacity:1;stroke:none" />
    <rect
       inkscape:export-ydpi="9"
       inkscape:export-xdpi="9"
       inkscape:export-filename="/Users/msh801/github/ComputerMuseum/images/pause.png"
       y="1125.0765"
       x="136.12225"
       height="250"
       width="250"
       id="rect3863"
       style="fill:none;stroke:none" />
    <path
       sodipodi:type="arc"
       style="fill:none;stroke:#ffffff;stroke-width:53.65227509;stroke-miterlimit:4;stroke-opacity:1;stroke-dasharray:none"
       id="path3113"
       sodipodi:cx="142.4315"
       sodipodi:cy="1570.5704"
       sodipodi:rx="93.944183"
       sodipodi:ry="93.944183"
       d="m 228.19536,1608.9119 a 93.944183,93.944183 0 1 1 -27.89087,-112.343"
       sodipodi:start="0.42040537"
       sodipodi:end="5.3760893"
       sodipodi:open="true"
       transform="matrix(0.74554153,0,0,0.74554153,386.73212,102.68041)" />
    <g
       id="g2990"
       transform="matrix(2.811132,-1.2394058e-8,1.2394058e-8,2.811132,702.00686,1195.4597)"
       inkscape:export-filename="/Users/msh801/github/ComputerMuseum/images/toolbar/camera.png"
       inkscape:export-xdpi="9.8199997"
       inkscape:export-ydpi="9.8199997"
       style="fill:#ffffff">
      <path
         style="fill:#ffffff;fill-rule:evenodd"
         inkscape:connector-curvature="0"
         id="path3"
         d="m 6.7787329,7.9671821 h 4.2688541 c 2.845734,0 2.845734,-7.11458398 5.69197,-7.11458398 h 2.846238 0.0069 0.02113 0.03512 0.02562 0.02311 0.06174 0.03114 0.04313 0.07079 0.01612 0.09638 0.0015 0.108427 0.0012 0.107423 0.01361 0.09286 0.03863 0.06678 0.07531 0.02763 0.101401 0.02262 0.07631 0.08485 0.01159 0.09437 0.06426 0.02813 0.08987 0.06123 0.02663 0.08485 0.07582 0.0069 0.07983 0.07732 0.03162 0.04313 0.0723 0.06878 0.01911 0.04663 0.06274 0.06024 0.04064 0.01612 0.05368 0.05065 0.04663 0.04362 0.0063 0.03413 0.03663 0.03313 0.02912 0.02561 0.02213 0.01811 0.01411 0.01058 0 0.0063 0.0015 9.960819 c 2.845733,0 2.845733,7.11458398 5.691471,7.11458398 h 27.03587 c 0,-1.571201 1.274536,-2.845733 2.845743,-2.845733 h 2.846246 c 1.571177,0 2.845723,1.274532 2.845723,2.845733 h 4.268841 c 3.928526,0 7.114564,3.1860829 7.114564,7.1145859 v 42.688005 c 0,3.929 -3.186038,7.11508 -7.114564,7.11508 H 6.7787803 c -3.9285059,5e-4 -7.11458704,-3.18557 -7.11458704,-7.11457 V 15.082271 c 0,-3.929006 3.18608114,-7.1150889 7.11458704,-7.1150889 l 0,0 z M 56.581838,15.082271 c -11.786025,0 -21.344258,9.558234 -21.344258,21.344261 0,11.786031 9.55773,21.344251 21.344258,21.344251 11.786022,0 21.344266,-9.55772 21.344266,-21.344251 C 77.9256,24.640003 68.367356,15.082271 56.581838,15.082271 l 0,0 z m -39.842281,7.114585 h 8.537703 c 1.571201,0 2.845734,-1.274532 2.845734,-2.845733 v -1.422615 c 0,-1.571706 -1.274533,-2.845736 -2.845734,-2.845736 h -8.537703 c -1.571704,0 -2.845734,1.274533 -2.845734,2.845736 v 1.422615 c -5.02e-4,1.571201 1.27403,2.845733 2.845734,2.845733 z"
         clip-rule="evenodd" />
      <path
         style="fill:#ffffff;fill-rule:evenodd"
         inkscape:connector-curvature="0"
         id="path5"
         d="m 56.581838,20.773741 c -8.643118,0 -15.652288,7.00917 -15.652288,15.652289 0,8.643113 7.00917,15.652793 15.652288,15.652793 8.643125,0 15.652287,-7.00968 15.652287,-15.652793 0,-8.643119 -7.009162,-15.652289 -15.652287,-15.652289 l 0,0 z"
         clip-rule="evenodd" />
    </g>
    <rect
       style="fill:none;stroke:none"
       id="rect4087"
       width="275"
       height="275"
       x="683.56299"
       y="1150.358"
       inkscape:export-filename="/Users/msh801/github/ComputerMuseum/images/toolbar/camera.png"
       inkscape:export-xdpi="9.8199997"
       inkscape:export-ydpi="9.8199997" />
  </g>
</svg>
