<?xml version="1.0" encoding="UTF-8" standalone="no"?>
<!-- Created with Inkscape (http://www.inkscape.org/) -->

<svg
   xmlns:dc="http://purl.org/dc/elements/1.1/"
   xmlns:cc="http://creativecommons.org/ns#"
   xmlns:rdf="http://www.w3.org/1999/02/22-rdf-syntax-ns#"
   xmlns:svg="http://www.w3.org/2000/svg"
   xmlns="http://www.w3.org/2000/svg"
   xmlns:xlink="http://www.w3.org/1999/xlink"
   xmlns:sodipodi="http://sodipodi.sourceforge.net/DTD/sodipodi-0.dtd"
   xmlns:inkscape="http://www.inkscape.org/namespaces/inkscape"
   width="744.09448819"
   height="1052.3622047"
   id="svg2"
   version="1.1"
   inkscape:version="0.48.2 r9819"
   sodipodi:docname="frogs.svg">
  <defs
     id="defs4">
    <pattern
       inkscape:collect="always"
       xlink:href="#Polkadots-largewhite"
       id="pattern5588"
       patternTransform="matrix(10,0,0,10,0.1,0)" />
    <pattern
       inkscape:stockid="Polka dots, large white"
       id="Polkadots-largewhite"
       patternTransform="translate(0,0) scale(10,10)"
       height="10"
       width="10"
       patternUnits="userSpaceOnUse"
       inkscape:collect="always">
      <circle
         id="circle5273"
         r="0.45"
         cy="0.810"
         cx="2.567"
         style="fill:white;stroke:none" />
      <circle
         id="circle5275"
         r="0.45"
         cy="2.33"
         cx="3.048"
         style="fill:white;stroke:none" />
      <circle
         id="circle5277"
         r="0.45"
         cy="2.415"
         cx="4.418"
         style="fill:white;stroke:none" />
      <circle
         id="circle5279"
         r="0.45"
         cy="3.029"
         cx="1.844"
         style="fill:white;stroke:none" />
      <circle
         id="circle5281"
         r="0.45"
         cy="1.363"
         cx="6.08"
         style="fill:white;stroke:none" />
      <circle
         id="circle5283"
         r="0.45"
         cy="4.413"
         cx="5.819"
         style="fill:white;stroke:none" />
      <circle
         id="circle5285"
         r="0.45"
         cy="4.048"
         cx="4.305"
         style="fill:white;stroke:none" />
      <circle
         id="circle5287"
         r="0.45"
         cy="3.045"
         cx="5.541"
         style="fill:white;stroke:none" />
      <circle
         id="circle5289"
         r="0.45"
         cy="5.527"
         cx="4.785"
         style="fill:white;stroke:none" />
      <circle
         id="circle5291"
         r="0.45"
         cy="5.184"
         cx="2.667"
         style="fill:white;stroke:none" />
      <circle
         id="circle5293"
         r="0.45"
         cy="1.448"
         cx="7.965"
         style="fill:white;stroke:none" />
      <circle
         id="circle5295"
         r="0.45"
         cy="5.049"
         cx="7.047"
         style="fill:white;stroke:none" />
      <circle
         id="circle5297"
         r="0.45"
         cy="0.895"
         cx="4.340"
         style="fill:white;stroke:none" />
      <circle
         id="circle5299"
         r="0.45"
         cy="0.340"
         cx="7.125"
         style="fill:white;stroke:none" />
      <circle
         id="circle5301"
         r="0.45"
         cy="1.049"
         cx="9.553"
         style="fill:white;stroke:none" />
      <circle
         id="circle5303"
         r="0.45"
         cy="2.689"
         cx="7.006"
         style="fill:white;stroke:none" />
      <circle
         id="circle5305"
         r="0.45"
         cy="2.689"
         cx="8.909"
         style="fill:white;stroke:none" />
      <circle
         id="circle5307"
         r="0.45"
         cy="4.407"
         cx="9.315"
         style="fill:white;stroke:none" />
      <circle
         id="circle5309"
         r="0.45"
         cy="3.870"
         cx="7.820"
         style="fill:white;stroke:none" />
      <circle
         id="circle5311"
         r="0.45"
         cy="5.948"
         cx="8.270"
         style="fill:white;stroke:none" />
      <circle
         id="circle5313"
         r="0.45"
         cy="7.428"
         cx="7.973"
         style="fill:white;stroke:none" />
      <circle
         id="circle5315"
         r="0.45"
         cy="8.072"
         cx="9.342"
         style="fill:white;stroke:none" />
      <circle
         id="circle5317"
         r="0.45"
         cy="9.315"
         cx="8.206"
         style="fill:white;stroke:none" />
      <circle
         id="circle5319"
         r="0.45"
         cy="9.475"
         cx="9.682"
         style="fill:white;stroke:none" />
      <circle
         id="circle5321"
         r="0.45"
         cy="6.186"
         cx="9.688"
         style="fill:white;stroke:none" />
      <circle
         id="circle5323"
         r="0.45"
         cy="6.296"
         cx="3.379"
         style="fill:white;stroke:none" />
      <circle
         id="circle5325"
         r="0.45"
         cy="8.204"
         cx="2.871"
         style="fill:white;stroke:none" />
      <circle
         id="circle5327"
         r="0.45"
         cy="8.719"
         cx="4.59"
         style="fill:white;stroke:none" />
      <circle
         id="circle5329"
         r="0.45"
         cy="9.671"
         cx="3.181"
         style="fill:white;stroke:none" />
      <circle
         id="circle5331"
         r="0.45"
         cy="7.315"
         cx="5.734"
         style="fill:white;stroke:none" />
      <circle
         id="circle5333"
         r="0.45"
         cy="6.513"
         cx="6.707"
         style="fill:white;stroke:none" />
      <circle
         id="circle5335"
         r="0.45"
         cy="9.670"
         cx="5.730"
         style="fill:white;stroke:none" />
      <circle
         id="circle5337"
         r="0.45"
         cy="8.373"
         cx="6.535"
         style="fill:white;stroke:none" />
      <circle
         id="circle5339"
         r="0.45"
         cy="7.154"
         cx="4.37"
         style="fill:white;stroke:none" />
      <circle
         id="circle5341"
         r="0.45"
         cy="7.25"
         cx="0.622"
         style="fill:white;stroke:none" />
      <circle
         id="circle5343"
         r="0.45"
         cy="5.679"
         cx="0.831"
         style="fill:white;stroke:none" />
      <circle
         id="circle5345"
         r="0.45"
         cy="8.519"
         cx="1.257"
         style="fill:white;stroke:none" />
      <circle
         id="circle5347"
         r="0.45"
         cy="6.877"
         cx="1.989"
         style="fill:white;stroke:none" />
      <circle
         id="circle5349"
         r="0.45"
         cy="3.181"
         cx="0.374"
         style="fill:white;stroke:none" />
      <circle
         id="circle5351"
         r="0.45"
         cy="1.664"
         cx="1.166"
         style="fill:white;stroke:none" />
      <circle
         id="circle5353"
         r="0.45"
         cy="0.093"
         cx="1.151"
         style="fill:white;stroke:none" />
      <circle
         id="circle5355"
         r="0.45"
         cy="10.093"
         cx="1.151"
         style="fill:white;stroke:none" />
      <circle
         id="circle5357"
         r="0.45"
         cy="4.451"
         cx="1.302"
         style="fill:white;stroke:none" />
      <circle
         id="circle5359"
         r="0.45"
         cy="3.763"
         cx="3.047"
         style="fill:white;stroke:none" />
    </pattern>
    <filter
       id="filter5730"
       inkscape:label="Drop shadow"
       width="1.5"
       height="1.5"
       x="-.25"
       y="-.25">
      <feGaussianBlur
         id="feGaussianBlur5732"
         in="SourceAlpha"
         stdDeviation="1"
         result="blur" />
      <feColorMatrix
         id="feColorMatrix5734"
         result="bluralpha"
         type="matrix"
         values="1 0 0 0 0 0 1 0 0 0 0 0 1 0 0 0 0 0 0.75 0 " />
      <feOffset
         id="feOffset5736"
         in="bluralpha"
         dx="1"
         dy="1"
         result="offsetBlur" />
      <feMerge
         id="feMerge5738">
        <feMergeNode
           id="feMergeNode5740"
           in="offsetBlur" />
        <feMergeNode
           id="feMergeNode5742"
           in="SourceGraphic" />
      </feMerge>
    </filter>
  </defs>
  <sodipodi:namedview
     id="base"
     pagecolor="#ffffff"
     bordercolor="#666666"
     borderopacity="1.0"
     inkscape:pageopacity="0.0"
     inkscape:pageshadow="2"
     inkscape:zoom="3.0460937"
     inkscape:cx="22.417286"
     inkscape:cy="968.98589"
     inkscape:document-units="px"
     inkscape:current-layer="layer1"
     showgrid="false"
     inkscape:window-width="1174"
     inkscape:window-height="755"
     inkscape:window-x="57"
     inkscape:window-y="0"
     inkscape:window-maximized="0" />
  <metadata
     id="metadata7">
    <rdf:RDF>
      <cc:Work
         rdf:about="">
        <dc:format>image/svg+xml</dc:format>
        <dc:type
           rdf:resource="http://purl.org/dc/dcmitype/StillImage" />
        <dc:title></dc:title>
      </cc:Work>
    </rdf:RDF>
  </metadata>
  <g
     inkscape:label="Layer 1"
     inkscape:groupmode="layer"
     id="layer1">
    <path
       style="fill:#008000"
       d="M 83.404156,113.68249 C 79.483917,110.81113 76.576707,106.68583 72.408091,104.06958 69.038067,101.15159 64.600082,100.89731 60.385869,101.41956 58.373152,101.831 56.066615,105.41865 54.733974,101.54041 52.851149,97.58578 57.789772,96.120567 59.625974,99.568365 62.332443,99.51701 67.193963,98.994775 63.226539,95.973545 61.441483,93.776935 55.52623,94.89444 58.537034,90.444289 60.948822,87.553288 63.779946,91.109517 63.259701,93.584876 64.963742,96.498415 70.156572,96.806368 67.225566,92.746122 62.71332,89.42774 71.886778,86.492627 70.191218,91.793155 69.176895,94.259102 70.324065,96.681993 71.863326,98.616002 72.669499,100.92368 78.970365,104.86266 75.856382,100.34021 74.628213,96.79085 70.712309,92.388655 72.641198,88.826289 78.03958,89.970836 83.085484,92.34274 88.003058,94.76921 85.990142,91.802036 83.12555,88.78254 83.116647,85.007946 82.987956,82.381793 86.115608,78.191185 85.29462,76.957797 81.939774,77.476936 78.079001,82.33423 75.043718,79.973537 72.040732,74.379106 69.11883,68.565326 64.231019,64.32571 62.069707,60.921332 57.862458,62.644312 55.494584,60.458322 53.833872,56.037668 59.518998,55.721235 59.917303,59.857194 62.42845,61.866525 66.095605,60.689639 63.969091,57.302474 63.204831,54.631819 57.087625,51.565392 62.613293,49.863378 66.46056,49.134217 65.974755,53.490343 64.94379,55.451573 65.804799,57.665321 68.913555,62.947216 70.056722,58.028547 67.617933,55.472697 70.337769,50.292207 73.159826,54.000653 74.864459,57.415119 69.900413,59.55622 71.11112,63.334441 72.785376,65.165439 75.014277,59.177739 76.602451,63.17569 78.187759,66.62954 74.085341,66.909519 72.051404,65.754208 69.77936,68.923696 74.893706,72.773207 76.696688,75.431479 79.22204,75.822145 82.059887,71.50119 84.603975,70.302492 88.502135,67.751327 91.538086,63.117298 88.230746,58.797849 86.340789,55.288711 84.669559,49.689531 89.797597,48.092619 93.373441,46.273085 94.796976,40.763402 99.57199,41.208863 103.28427,42.982676 106.12393,46.354301 109.65399,48.55729 113.50284,52.090583 110.30584,56.977066 109.52024,61.046445 108.65378,65.694992 114.40796,67.781372 117.51606,70.021775 120.32841,71.849163 123.98492,74.862704 125.33242,70.055274 127.10406,68.29135 130.06193,60.597103 125.03328,63.357705 119.40887,65.039937 123.34214,55.138345 126.44147,60.680911 129.83633,59.893402 125.87919,54.686256 124.42922,53.354224 122.91849,48.617392 130.88699,48.453584 128.45373,53.310361 127.04495,56.728418 131.83119,57.837058 131.99272,53.92515 134.83638,51.239424 128.99165,47.362278 133.7131,45.742007 137.57599,44.694578 138.32539,49.761873 134.89738,50.895653 133.47566,53.346872 133.12718,58.835163 137.39124,55.982246 139.3113,55.165488 139.90274,49.353566 142.58474,52.822423 144.80471,58.282501 137.15216,55.71299 135.38431,59.473385 130.55132,64.334541 128.15074,70.819787 125.70169,77.060637 122.87281,79.971842 117.32471,74.472485 114.61658,75.470909 116.94812,79.189349 118.76924,83.417495 117.64808,87.885854 117.31356,89.793519 115.28626,93.46564 118.40704,90.755438 121.83301,88.701256 125.4125,86.687728 129.26247,85.599794 131.01489,89.70722 127.85566,94.519615 126.6617,98.57472 126.20554,101.77087 131.0659,96.09342 131.44472,94.229495 134.49662,91.447745 128.55733,84.688628 134.42039,84.978512 138.44859,86.257118 131.45969,91.720128 135.7011,91.986846 138.03278,90.780247 139.97488,88.87909 138.90871,86.277415 142.76227,80.932338 147.17002,90.917614 140.55882,90.155942 138.43345,91.677872 136.20796,95.69738 140.6916,94.747345 143.68999,95.592522 147.7795,88.884495 148.49468,94.896478 148.62052,98.814838 145.018,98.56718 142.99027,96.636865 138.74463,96.579885 134.24303,97.208095 131.19921,100.50139 127.50609,103.50999 124.9736,107.60373 121.7547,111.04492 117.23751,113.32357 119.0794,104.91013 119.95882,102.54962 120.64344,100.41397 121.95962,95.801915 118.99664,99.44357 115.73469,102.49751 110.63956,102.81538 108.08298,106.71698 105.90371,110.66483 100.50111,111.81752 97.3281,108.3346 94.50306,105.61908 91.034475,104.08876 87.317146,103.0612 85.246977,102.73584 80.701784,97.75955 82.678134,102.32609 84.058269,105.7538 85.740081,109.22984 85.401819,113.02595 84.864961,113.52607 84.243483,114.27343 83.404156,113.68249 z"
       id="path3197"
       inkscape:connector-curvature="0" />
    <path
       inkscape:connector-curvature="0"
       id="path5494"
       d="M 83.504156,113.68249 C 79.583917,110.81113 76.676707,106.68583 72.508091,104.06958 69.138067,101.15159 64.700082,100.89731 60.485869,101.41956 58.473152,101.831 56.166615,105.41865 54.833974,101.54041 52.951149,97.58578 57.889772,96.120567 59.725974,99.568365 62.432443,99.51701 67.293963,98.994775 63.326539,95.973545 61.541483,93.776935 55.62623,94.89444 58.637034,90.444289 61.048822,87.553288 63.879946,91.109517 63.359701,93.584876 65.063742,96.498415 70.256572,96.806368 67.325566,92.746122 62.81332,89.42774 71.986778,86.492627 70.291218,91.793155 69.276895,94.259102 70.424065,96.681993 71.963326,98.616002 72.769499,100.92368 79.070365,104.86266 75.956382,100.34021 74.728213,96.79085 70.812309,92.388655 72.741198,88.826289 78.13958,89.970836 83.185484,92.34274 88.103058,94.76921 86.090142,91.802036 83.22555,88.78254 83.216647,85.007946 83.087956,82.381793 86.215608,78.191185 85.39462,76.957797 82.039774,77.476936 78.179001,82.33423 75.143718,79.973537 72.140732,74.379106 69.21883,68.565326 64.331019,64.32571 62.169707,60.921332 57.962458,62.644312 55.594584,60.458322 53.933872,56.037668 59.618998,55.721235 60.017303,59.857194 62.52845,61.866525 66.195605,60.689639 64.069091,57.302474 63.304831,54.631819 57.187625,51.565392 62.713293,49.863378 66.56056,49.134217 66.074755,53.490343 65.04379,55.451573 65.904799,57.665321 69.013555,62.947216 70.156722,58.028547 67.717933,55.472697 70.437769,50.292207 73.259826,54.000653 74.964459,57.415119 70.000413,59.55622 71.21112,63.334441 72.885376,65.165439 75.114277,59.177739 76.702451,63.17569 78.287759,66.62954 74.185341,66.909519 72.151404,65.754208 69.87936,68.923696 74.993706,72.773207 76.796688,75.431479 79.32204,75.822145 82.159887,71.50119 84.703975,70.302492 88.602135,67.751327 91.638086,63.117298 88.330746,58.797849 86.440789,55.288711 84.769559,49.689531 89.897597,48.092619 93.473441,46.273085 94.896976,40.763402 99.67199,41.208863 103.38427,42.982676 106.22393,46.354301 109.75399,48.55729 113.60284,52.090583 110.40584,56.977066 109.62024,61.046445 108.75378,65.694992 114.50796,67.781372 117.61606,70.021775 120.42841,71.849163 124.08492,74.862704 125.43242,70.055274 127.20406,68.29135 130.16193,60.597103 125.13328,63.357705 119.50887,65.039937 123.44214,55.138345 126.54147,60.680911 129.93633,59.893402 125.97919,54.686256 124.52922,53.354224 123.01849,48.617392 130.98699,48.453584 128.55373,53.310361 127.14495,56.728418 131.93119,57.837058 132.09272,53.92515 134.93638,51.239424 129.09165,47.362278 133.8131,45.742007 137.67599,44.694578 138.42539,49.761873 134.99738,50.895653 133.57566,53.346872 133.22718,58.835163 137.49124,55.982246 139.4113,55.165488 140.00274,49.353566 142.68474,52.822423 144.90471,58.282501 137.25216,55.71299 135.48431,59.473385 130.65132,64.334541 128.25074,70.819787 125.80169,77.060637 122.97281,79.971842 117.42471,74.472485 114.71658,75.470909 117.04812,79.189349 118.86924,83.417495 117.74808,87.885854 117.41356,89.793519 115.38626,93.46564 118.50704,90.755438 121.93301,88.701256 125.5125,86.687728 129.36247,85.599794 131.11489,89.70722 127.95566,94.519615 126.7617,98.57472 126.30554,101.77087 131.1659,96.09342 131.54472,94.229495 134.59662,91.447745 128.65733,84.688628 134.52039,84.978512 138.54859,86.257118 131.55969,91.720128 135.8011,91.986846 138.13278,90.780247 140.07488,88.87909 139.00871,86.277415 142.86227,80.932338 147.27002,90.917614 140.65882,90.155942 138.53345,91.677872 136.30796,95.69738 140.7916,94.747345 143.78999,95.592522 147.8795,88.884495 148.59468,94.896478 148.72052,98.814838 145.118,98.56718 143.09027,96.636865 138.84463,96.579885 134.34303,97.208095 131.29921,100.50139 127.60609,103.50999 125.0736,107.60373 121.8547,111.04492 117.33751,113.32357 119.1794,104.91013 120.05882,102.54962 120.74344,100.41397 122.05962,95.801915 119.09664,99.44357 115.83469,102.49751 110.73956,102.81538 108.18298,106.71698 106.00371,110.66483 100.60111,111.81752 97.4281,108.3346 94.60306,105.61908 91.134475,104.08876 87.417146,103.0612 85.346977,102.73584 80.801784,97.75955 82.778134,102.32609 84.158269,105.7538 85.840081,109.22984 85.501819,113.02595 84.964961,113.52607 84.343483,114.27343 83.504156,113.68249 z"
       style="opacity:0.39655174999999998;fill:url(#pattern5588);fill-opacity:1;filter:url(#filter5730)" />
  </g>
</svg>
