<svg xmlns="http://www.w3.org/2000/svg" version="1.1" height="170px">
   <defs>
      <pattern id="stripes"
               x="0" y="0"
               width="40" height="40"
               patternUnits="userSpaceOnUse"
               patternTransform="rotate(15)">
         <rect width='40' height='18' fill='white' fill-opacity="0.5"></rect>
      </pattern>
      
      <pattern id="dots"
               x="0" y="0"
               width="50" height="50"
               patternUnits="userSpaceOnUse">
         <circle cx='15' cy='15' r="8" fill='white' fill-opacity="0.5"></circle>
         <circle cx='53' cy='41' r="8" fill='white' fill-opacity="0.5"></circle>
         <circle cx='3' cy='41' r="8" fill='white' fill-opacity="0.5"></circle>
         <circle cx='40' cy='18' r="8" fill='white' fill-opacity="0.5"></circle>
         <circle cx='30' cy='40' r="8" fill='white' fill-opacity="0.5"></circle>
      </pattern>
      
      <pattern id="checks"
               x="0" y="0"
               width="30" height="30"
               patternUnits="userSpaceOnUse"
               patternTransform="rotate(25)">
         <rect x="0" y="0"
               width='15' height='15'
               fill='white' fill-opacity="0.5"></rect>
         <rect x="15" y="15"
               width='15' height='15'
               fill='white' fill-opacity="0.5"></rect>
      </pattern>
      
      <path id="frog-shape"
            d="M 63.144541,154.35734
            C 54.812311,148.25404 48.633191,139.48594 39.772991,133.92554 32.610212,127.72314
              23.17746,127.18304 14.220378,128.29304 9.9424654,129.16734 5.0400432,136.79264
              2.2075822,128.54974 -1.7942498,120.14464 8.7025122,117.03014 12.605275,124.35834
              18.357709,124.24894 28.690629,123.13934 20.258088,116.71774 16.46404,112.04904
              3.8914852,114.42424 10.290764,104.96564 15.416941,98.820916 21.434324,106.37944
              20.328588,111.64084 23.950434,117.83314 34.987521,118.48764 28.757795,109.85814
              19.167248,102.80494 38.664961,96.566526 35.061172,107.83254 32.905279,113.07364
              35.343521,118.22334 38.615141,122.33404 40.328581,127.23904 53.720771,135.61114
              47.102181,125.99904 44.491761,118.45464 36.168711,109.09834 40.268441,101.5266
              51.742411,103.95924 62.467261,109.00064 72.919311,114.15814 68.640961,107.85144
              62.552381,101.43362 62.533461,93.410916 62.259971,87.829176 68.907621,78.922266
              67.162631,76.300756 60.032111,77.404136 51.826241,87.728086 45.374901,82.710516
              38.992211,70.819866 32.781867,58.462996 22.393079,49.451896 17.799284,42.216046
              8.8570152,45.878186 3.8242322,41.231956 0.2944512,31.836086 12.377883,31.163526
              13.224462,39.954316 18.561781,44.225026 26.356152,41.723596 21.83636,34.524386
              20.211973,28.848036 7.2101582,22.330486 18.954649,18.712946 27.131815,17.163186
              26.099269,26.421866 23.90801,30.590386 25.738068,35.295566 32.345538,46.521986
              34.775266,36.067626 29.591758,30.635256 35.372647,19.624396 41.370771,27.506536
              44.993871,34.763786 34.443042,39.314596 37.016351,47.345006 40.574891,51.236676
              45.312311,38.510146 48.687881,47.007566 52.057381,54.348546 43.337921,54.943656
              39.014861,52.488096 34.185779,59.224696 45.056031,67.406586 48.888171,73.056636
              54.255701,73.886956 60.287381,64.702986 65.694701,62.155226 73.980031,56.732886
              80.432801,46.883496 73.403231,37.702736 69.386231,30.244216 65.834101,18.343476
              76.733471,14.949286 84.333761,11.081986 87.359421,-0.62856365 97.508451,0.31824635
              105.39894,4.0884064 111.434,11.254626 118.93731,15.936956 127.1178,23.446786
              120.32284,33.832726 118.6529,42.481976 116.81154,52.362226 129.04146,56.796726
              135.64773,61.558576 141.62501,65.442626 149.39683,71.847746 152.26066,61.629796
              156.02617,57.880666 162.31341,41.526926 151.62497,47.394476 139.67077,50.969926
              148.0306,29.924616 154.61787,41.705056 161.83349,40.031276 153.42296,28.963716
              150.34129,26.132576 147.13007,16.064686 164.06659,15.716506 158.8952,26.039346
              155.9008,33.304236 166.07368,35.660586 166.41723,27.346026 172.46108,21.637656
              160.03852,13.397016 170.07375,9.9532264 178.28383,7.7269664 179.87686,18.497226
              172.59072,20.907016 169.56887,26.116956 168.82802,37.782026 177.89119,31.718316
              181.97206,29.982326 183.22918,17.629366 188.92989,25.002246 193.64845,36.607356
              177.38324,31.146006 173.62576,39.138556 163.35355,49.470646 158.25103,63.254726
              153.04598,76.519296 147.0331,82.706916 135.24083,71.018316 129.48503,73.140446
              134.44033,81.043766 138.3114,90.030466 135.92831,99.527746 135.21722,103.58244
              130.90854,111.38714 137.54131,105.62684 144.82285,101.26081 152.43117,96.981176
              160.61409,94.668836 164.33864,103.39904 157.62389,113.62764 155.08613,122.24644
              154.11691,129.03974 164.44689,116.97244 165.25236,113.01074 171.73886,107.09834
              159.11545,92.732226 171.5771,93.348326 180.13839,96.065946 165.28429,107.67734
              174.29888,108.24414 179.25459,105.67964 183.38245,101.63884 181.11654,96.109076
              189.30722,84.748426 198.67542,105.97164 184.62385,104.35264 180.10629,107.58744
              175.37614,116.13094 184.90579,114.11144 191.27876,115.90794 199.97113,101.65033
              201.49097,114.42854 201.75832,122.75654 194.10146,122.23044 189.79192,118.12764
              180.7678,118.00624 171.19993,119.34184 164.73034,126.34154 156.88081,132.73604
              151.49803,141.43684 144.65653,148.75124 135.05558,153.59414 138.9703,135.71214
              140.83976,130.69474 142.29447,126.15554 145.092,116.35314 138.79477,124.09324
              131.86153,130.58414 121.0318,131.25954 115.59838,139.55254 110.96627,147.94344
              99.483381,150.39304 92.739201,142.99024 86.734691,137.21874 79.362391,133.96614
              71.461401,131.78204 67.061401,131.09084 57.400811,120.51364 61.601451,130.21984
              64.534851,137.50504 68.109471,144.89354 67.390511,152.96164 66.249411,154.02474
              64.928501,155.61294 63.144541,154.35734 z" ></path>
   </defs>
      
</svg>
